<svg viewBox="0 0 400 300" xmlns="http://www.w3.org/2000/svg">
  <rect width="400" height="300" fill="#FFF8F0"/>
  <ellipse cx="200" cy="240" rx="160" ry="22" fill="#8EC5E9" opacity="0.18"/>

  <!-- plate -->
  <ellipse cx="200" cy="225" rx="150" ry="24" fill="#FFFFFF" stroke="#E8DCCB" stroke-width="3"/>

  <!-- loaf -->
  <ellipse cx="200" cy="185" rx="125" ry="68" fill="#6B3E26"/>
  <path d="M80 185 Q200 80 320 185 Q320 140 200 125 Q80 140 80 185 Z" fill="#8B5A33"/>
  <path d="M100 178 Q200 95 300 178 Q300 148 200 138 Q100 148 100 178 Z" fill="#A8703F"/>

  <!-- walnut halves scattered -->
  <g fill="#A9744F" stroke="#6B3E26" stroke-width="1.5">
    <ellipse cx="160" cy="145" rx="14" ry="10" transform="rotate(-10 160 145)"/>
    <ellipse cx="200" cy="130" rx="14" ry="10" transform="rotate(8 200 130)"/>
    <ellipse cx="240" cy="148" rx="14" ry="10" transform="rotate(-6 240 148)"/>
    <ellipse cx="180" cy="170" rx="12" ry="9" transform="rotate(12 180 170)"/>
    <ellipse cx="225" cy="172" rx="12" ry="9" transform="rotate(-12 225 172)"/>
  </g>
  <g stroke="#6B3E26" stroke-width="1" opacity="0.5" fill="none">
    <path d="M152 142 Q160 145 156 150"/>
    <path d="M192 126 Q200 130 196 135"/>
    <path d="M232 144 Q240 148 236 153"/>
  </g>

  <!-- steam -->
  <path d="M160 95 Q152 75 165 60" stroke="#FFD54F" stroke-width="4" fill="none" stroke-linecap="round" opacity="0.6"/>
  <path d="M240 95 Q248 75 235 60" stroke="#FFD54F" stroke-width="4" fill="none" stroke-linecap="round" opacity="0.6"/>
</svg>
